<svg width="59" height="59" viewBox="0 0 59 59" fill="none" xmlns="http://www.w3.org/2000/svg">
<path d="M29.5 0L35.9997 9.49595L46.8397 5.634L46.5165 17.1368L57.5562 20.384L50.5335 29.5L57.5562 38.616L46.5165 41.8632L46.8397 53.366L35.9997 49.504L29.5 59L23.0003 49.504L12.1603 53.366L12.4835 41.8632L1.44383 38.616L8.4665 29.5L1.44383 20.384L12.4835 17.1368L12.1603 5.634L23.0003 9.49595L29.5 0Z" fill="#FFD603"/>
<path fill-rule="evenodd" clip-rule="evenodd" d="M33.4523 26.4157C32.956 26.335 32.3407 26.3232 31.7555 26.3598C31.2366 26.3923 30.7896 25.9978 30.7571 25.4789C30.7247 24.9599 31.1191 24.5129 31.6381 24.4805C32.3082 24.4386 33.0738 24.4465 33.7543 24.5571C34.0945 24.6123 34.4434 24.698 34.7594 24.8332C35.0678 24.9653 35.4139 25.1741 35.661 25.516C35.932 25.891 36.0233 26.3437 35.9295 26.8069C35.8434 27.2322 35.6116 27.6238 35.3211 27.9796C34.7423 28.6883 33.725 29.4995 32.1958 30.4552C31.7549 30.7308 31.174 30.5968 30.8984 30.1559C30.6228 29.7149 30.7569 29.1341 31.1978 28.8585C32.6814 27.9313 33.4843 27.2518 33.8627 26.7885C33.9384 26.6958 33.9887 26.6218 34.0219 26.5658C34.0207 26.5653 34.0195 26.5648 34.0183 26.5642C33.8891 26.5089 33.7006 26.456 33.4523 26.4157Z" fill="black"/>
<path fill-rule="evenodd" clip-rule="evenodd" d="M24.0101 21.0394C24.523 20.9539 25.0081 21.3004 25.0936 21.8133L25.7212 25.5792C25.8067 26.0921 25.4602 26.5772 24.9473 26.6627C24.4344 26.7482 23.9494 26.4017 23.8639 25.8888L23.2362 22.1228C23.1507 21.6099 23.4972 21.1249 24.0101 21.0394Z" fill="black"/>
<path fill-rule="evenodd" clip-rule="evenodd" d="M36.8771 19.1564C37.39 19.0709 37.8751 19.4174 37.9606 19.9303L38.5883 23.6962C38.6737 24.2091 38.3272 24.6942 37.8144 24.7797C37.3015 24.8652 36.8164 24.5187 36.7309 24.0058L36.1032 20.2398C36.0177 19.727 36.3642 19.2419 36.8771 19.1564Z" fill="black"/>
<path fill-rule="evenodd" clip-rule="evenodd" d="M41.6339 28.8735C42.0666 29.1619 42.1835 29.7465 41.8951 30.1791C39.7747 33.3597 35.8838 34.6249 32.1455 35.0067C28.3713 35.3923 24.4986 34.9068 22.068 34.3397C21.5616 34.2215 21.2469 33.7153 21.365 33.2089C21.4832 32.7025 21.9895 32.3878 22.4958 32.506C24.7726 33.0372 28.4319 33.4933 31.9542 33.1335C35.5125 32.77 38.6827 31.603 40.3283 29.1346C40.6168 28.702 41.2013 28.5851 41.6339 28.8735Z" fill="black"/>
</svg>
